<?xml version="1.0" encoding="iso-8859-1"?>
<!-- Generator: Adobe Illustrator 17.1.0, SVG Export Plug-In . SVG Version: 6.00 Build 0)  -->
<!DOCTYPE svg PUBLIC "-//W3C//DTD SVG 1.1//EN" "http://www.w3.org/Graphics/SVG/1.1/DTD/svg11.dtd">
<svg version="1.1" id="Capa_1" xmlns="http://www.w3.org/2000/svg" xmlns:xlink="http://www.w3.org/1999/xlink" x="0px" y="0px"
	 viewBox="0 0 474.33 474.33" style="enable-background:new 0 0 474.33 474.33;" xml:space="preserve">
<path d="M466.83,96.539H291.64L189.221,26.838c-0.001-0.001-0.003-0.001-0.004-0.002c-0.281-0.191-0.579-0.358-0.885-0.51
	c-0.057-0.028-0.114-0.056-0.171-0.082c-0.604-0.281-1.249-0.483-1.927-0.595c-0.074-0.012-0.148-0.024-0.223-0.034
	c-0.331-0.045-0.666-0.076-1.01-0.076H7.5c-4.143,0-7.5,3.358-7.5,7.5v337.253c0,4.142,3.357,7.5,7.5,7.5h175.191l102.418,69.701
	c1.244,0.847,2.715,1.3,4.22,1.3H466.83c4.143,0,7.5-3.358,7.5-7.5V104.039C474.33,99.897,470.973,96.539,466.83,96.539z
	 M459.33,433.792H291.639l-102.418-69.701c-1.244-0.847-2.715-1.3-4.22-1.3H15V40.538h162.501v258.752c0,4.142,3.357,7.5,7.5,7.5
	s7.5-3.358,7.5-7.5V47.215l89.097,60.635v262.442c0,4.142,3.357,7.5,7.5,7.5s7.5-3.358,7.5-7.5V111.539H459.33V433.792z
	 M95.776,104.039c-19.606,0-35.5,15.894-35.5,35.5c0,19.606,27.734,88.751,35.5,88.751c7.256,0,35.5-69.145,35.5-88.751
	C131.277,119.933,115.383,104.039,95.776,104.039z M95.776,159.3c-10.914,0-19.761-8.847-19.761-19.761
	c0-10.913,8.847-19.761,19.761-19.761s19.761,8.847,19.761,19.761C115.537,150.453,106.69,159.3,95.776,159.3z"/>
<g>
</g>
<g>
</g>
<g>
</g>
<g>
</g>
<g>
</g>
<g>
</g>
<g>
</g>
<g>
</g>
<g>
</g>
<g>
</g>
<g>
</g>
<g>
</g>
<g>
</g>
<g>
</g>
<g>
</g>
</svg>
