<?xml version="1.0" encoding="iso-8859-1"?>
<!-- Generator: Adobe Illustrator 19.0.0, SVG Export Plug-In . SVG Version: 6.00 Build 0)  -->
<svg version="1.1" id="Layer_1" xmlns="http://www.w3.org/2000/svg" xmlns:xlink="http://www.w3.org/1999/xlink" x="0px" y="0px"
	 viewBox="0 0 511.999 511.999" style="enable-background:new 0 0 511.999 511.999;" xml:space="preserve">
<g>
	<g>
		<g>
			<path d="M256.003,207.219c27.743,0,50.315-22.57,50.315-50.314s-22.57-50.314-50.315-50.314
				c-27.743,0-50.314,22.57-50.314,50.314C205.689,184.649,228.26,207.219,256.003,207.219z M256.003,138.993
				c9.878,0,17.914,8.035,17.914,17.913c0,9.878-8.035,17.913-17.914,17.913c-9.877,0-17.913-8.035-17.913-17.913
				C238.09,147.028,246.126,138.993,256.003,138.993z"/>
			<path d="M256.003,210.612c-48.919,0-88.719,39.8-88.719,88.719c0,8.947,7.253,16.2,16.2,16.2h145.038
				c8.947,0,16.2-7.253,16.2-16.2C344.722,250.41,304.923,210.612,256.003,210.612z M202.058,283.129
				c6.975-23.183,28.52-40.118,53.945-40.118c25.425,0,46.969,16.936,53.945,40.118H202.058z"/>
			<path d="M484.76,34.596H354.802c-13.608,0-24.917,10.031-26.924,23.086H184.133c-2.007-13.056-13.321-23.086-26.935-23.086H27.24
				C12.219,34.596,0,46.815,0,61.836v159.472c0,15.02,12.219,27.24,27.24,27.24h28.921l22.027,38.16
				c6.233,10.797,21.825,10.799,28.06,0.002l19.306-33.433v76.859c0,18.083,14.711,32.794,32.794,32.794h48.171l35.456,61.414
				c6.232,10.795,21.838,10.776,28.059,0l35.458-61.414h48.17c18.083,0,32.794-14.711,32.794-32.794v-76.854l19.294,33.425
				c6.233,10.797,21.839,10.778,28.061,0l22.028-38.16h28.921c15.021,0,27.24-12.22,27.24-27.24V61.836
				C512,46.815,499.781,34.596,484.76,34.596z M125.555,216.149c-18.837-0.001-16.567,1.028-33.333,30.061
				c-20.036-34.711-10.314-30.062-59.822-30.062V66.997h103.077C121.631,80.515,125.555,89.282,125.555,216.149z M353.662,330.531
				h-57.523c-12.113,0-12.871,6.092-40.135,53.314c-27.27-47.234-28.029-53.314-40.133-53.314h-57.524
				c-0.217,0-0.393-0.176-0.393-0.393c0-0.649-0.256-240.054,0.393-240.054c0.606,0,195.706-0.213,195.706,0.393
				c0.001,11.233,0.001,230.322,0.001,239.661C354.055,330.355,353.879,330.531,353.662,330.531z M479.599,216.148
				c-49.279,0-39.735-4.738-59.819,30.057c-16.786-29.079-14.563-30.057-33.325-30.057c0-131.529,3.804-135.75-9.922-149.152
				h103.066V216.148z"/>
			<path d="M450.894,445.002H61.118c-8.947,0-16.2,7.253-16.2,16.2s7.253,16.2,16.2,16.2h389.776c8.947,0,16.2-7.253,16.2-16.2
				S459.841,445.002,450.894,445.002z"/>
		</g>
	</g>
</g>
<g>
</g>
<g>
</g>
<g>
</g>
<g>
</g>
<g>
</g>
<g>
</g>
<g>
</g>
<g>
</g>
<g>
</g>
<g>
</g>
<g>
</g>
<g>
</g>
<g>
</g>
<g>
</g>
<g>
</g>
</svg>
